<mxfile host="Electron" agent="Mozilla/5.0 (Windows NT 10.0; Win64; x64) AppleWebKit/537.36 (KHTML, like Gecko) draw.io/28.0.6 Chrome/138.0.7204.100 Electron/37.2.3 Safari/537.36" version="28.0.6">
  <diagram name="Page-1" id="DU6MYUenWTnv1ooGztLw">
    <mxGraphModel dx="1489" dy="894" grid="1" gridSize="10" guides="1" tooltips="1" connect="1" arrows="1" fold="1" page="0" pageScale="1" pageWidth="1169" pageHeight="827" math="0" shadow="0">
      <root>
        <mxCell id="0" />
        <mxCell id="1" parent="0" />
        <mxCell id="-a9hoMa4mL-qHLMkFwVA-1" value="&lt;h1 style=&quot;margin-top: 0px;&quot;&gt;&lt;font style=&quot;&quot;&gt;DATA FLOW DIAGRAM&lt;/font&gt;&lt;/h1&gt;" style="text;html=1;whiteSpace=wrap;overflow=hidden;rounded=0;" parent="1" vertex="1">
          <mxGeometry x="40" y="30" width="320" height="50" as="geometry" />
        </mxCell>
        <mxCell id="-a9hoMa4mL-qHLMkFwVA-2" value="" style="rounded=0;whiteSpace=wrap;html=1;fillColor=none;dashed=1;" parent="1" vertex="1">
          <mxGeometry x="40" y="120" width="200" height="480" as="geometry" />
        </mxCell>
        <mxCell id="-a9hoMa4mL-qHLMkFwVA-4" value="&lt;font style=&quot;font-size: 24px;&quot;&gt;Sources&lt;/font&gt;" style="text;html=1;align=center;verticalAlign=middle;whiteSpace=wrap;rounded=0;fillColor=default;" parent="1" vertex="1">
          <mxGeometry x="80" y="100" width="120" height="40" as="geometry" />
        </mxCell>
        <mxCell id="-a9hoMa4mL-qHLMkFwVA-5" value="&lt;span style=&quot;font-size: 24px;&quot;&gt;Bronze Layer&lt;/span&gt;" style="text;html=1;align=center;verticalAlign=middle;whiteSpace=wrap;rounded=0;fillColor=#ffe6cc;strokeColor=none;dashed=1;" parent="1" vertex="1">
          <mxGeometry x="320" y="120" width="200" height="50" as="geometry" />
        </mxCell>
        <mxCell id="-a9hoMa4mL-qHLMkFwVA-17" style="edgeStyle=orthogonalEdgeStyle;rounded=0;orthogonalLoop=1;jettySize=auto;html=1;entryX=0;entryY=0.5;entryDx=0;entryDy=0;" parent="1" source="-a9hoMa4mL-qHLMkFwVA-6" target="-a9hoMa4mL-qHLMkFwVA-7" edge="1">
          <mxGeometry relative="1" as="geometry" />
        </mxCell>
        <mxCell id="-a9hoMa4mL-qHLMkFwVA-18" style="edgeStyle=orthogonalEdgeStyle;rounded=0;orthogonalLoop=1;jettySize=auto;html=1;entryX=0;entryY=0.5;entryDx=0;entryDy=0;" parent="1" source="-a9hoMa4mL-qHLMkFwVA-6" target="-a9hoMa4mL-qHLMkFwVA-8" edge="1">
          <mxGeometry relative="1" as="geometry" />
        </mxCell>
        <mxCell id="-a9hoMa4mL-qHLMkFwVA-19" style="edgeStyle=orthogonalEdgeStyle;rounded=0;orthogonalLoop=1;jettySize=auto;html=1;entryX=0;entryY=0.25;entryDx=0;entryDy=0;" parent="1" source="-a9hoMa4mL-qHLMkFwVA-6" target="-a9hoMa4mL-qHLMkFwVA-9" edge="1">
          <mxGeometry relative="1" as="geometry" />
        </mxCell>
        <mxCell id="-a9hoMa4mL-qHLMkFwVA-6" value="" style="image;aspect=fixed;html=1;points=[];align=center;fontSize=12;image=img/lib/azure2/general/Folder_Blank.svg;" parent="1" vertex="1">
          <mxGeometry x="80" y="220" width="98.57" height="80" as="geometry" />
        </mxCell>
        <mxCell id="hccr-1u9GcHIdRRUgjbz-10" style="edgeStyle=orthogonalEdgeStyle;rounded=0;orthogonalLoop=1;jettySize=auto;html=1;entryX=0;entryY=0.5;entryDx=0;entryDy=0;" edge="1" parent="1" source="-a9hoMa4mL-qHLMkFwVA-7" target="hccr-1u9GcHIdRRUgjbz-4">
          <mxGeometry relative="1" as="geometry" />
        </mxCell>
        <mxCell id="-a9hoMa4mL-qHLMkFwVA-7" value="&lt;span style=&quot;font-size: 16px;&quot;&gt;crm_cust_info&lt;/span&gt;" style="text;html=1;align=center;verticalAlign=middle;whiteSpace=wrap;rounded=0;fillColor=#ffe6cc;strokeColor=#d79b00;" parent="1" vertex="1">
          <mxGeometry x="330" y="190" width="180" height="40" as="geometry" />
        </mxCell>
        <mxCell id="hccr-1u9GcHIdRRUgjbz-11" style="edgeStyle=orthogonalEdgeStyle;rounded=0;orthogonalLoop=1;jettySize=auto;html=1;" edge="1" parent="1" source="-a9hoMa4mL-qHLMkFwVA-8" target="hccr-1u9GcHIdRRUgjbz-5">
          <mxGeometry relative="1" as="geometry" />
        </mxCell>
        <mxCell id="-a9hoMa4mL-qHLMkFwVA-8" value="&lt;span style=&quot;font-size: 16px;&quot;&gt;crm_prd_info&lt;/span&gt;" style="text;html=1;align=center;verticalAlign=middle;whiteSpace=wrap;rounded=0;fillColor=#ffe6cc;strokeColor=#d79b00;" parent="1" vertex="1">
          <mxGeometry x="330" y="240" width="180" height="40" as="geometry" />
        </mxCell>
        <mxCell id="hccr-1u9GcHIdRRUgjbz-12" style="edgeStyle=orthogonalEdgeStyle;rounded=0;orthogonalLoop=1;jettySize=auto;html=1;exitX=1;exitY=0.5;exitDx=0;exitDy=0;" edge="1" parent="1" source="-a9hoMa4mL-qHLMkFwVA-9" target="hccr-1u9GcHIdRRUgjbz-6">
          <mxGeometry relative="1" as="geometry" />
        </mxCell>
        <mxCell id="-a9hoMa4mL-qHLMkFwVA-9" value="&lt;span style=&quot;font-size: 16px;&quot;&gt;crm_sales_details&lt;/span&gt;" style="text;html=1;align=center;verticalAlign=middle;whiteSpace=wrap;rounded=0;fillColor=#ffe6cc;strokeColor=#d79b00;" parent="1" vertex="1">
          <mxGeometry x="330" y="290" width="180" height="40" as="geometry" />
        </mxCell>
        <mxCell id="-a9hoMa4mL-qHLMkFwVA-20" style="edgeStyle=orthogonalEdgeStyle;rounded=0;orthogonalLoop=1;jettySize=auto;html=1;entryX=0;entryY=0.75;entryDx=0;entryDy=0;" parent="1" source="-a9hoMa4mL-qHLMkFwVA-10" target="-a9hoMa4mL-qHLMkFwVA-13" edge="1">
          <mxGeometry relative="1" as="geometry" />
        </mxCell>
        <mxCell id="-a9hoMa4mL-qHLMkFwVA-21" style="edgeStyle=orthogonalEdgeStyle;rounded=0;orthogonalLoop=1;jettySize=auto;html=1;entryX=0;entryY=0.75;entryDx=0;entryDy=0;" parent="1" source="-a9hoMa4mL-qHLMkFwVA-10" target="-a9hoMa4mL-qHLMkFwVA-12" edge="1">
          <mxGeometry relative="1" as="geometry" />
        </mxCell>
        <mxCell id="-a9hoMa4mL-qHLMkFwVA-22" style="edgeStyle=orthogonalEdgeStyle;rounded=0;orthogonalLoop=1;jettySize=auto;html=1;entryX=0;entryY=0.75;entryDx=0;entryDy=0;" parent="1" source="-a9hoMa4mL-qHLMkFwVA-10" target="-a9hoMa4mL-qHLMkFwVA-14" edge="1">
          <mxGeometry relative="1" as="geometry" />
        </mxCell>
        <mxCell id="-a9hoMa4mL-qHLMkFwVA-10" value="" style="image;aspect=fixed;html=1;points=[];align=center;fontSize=12;image=img/lib/azure2/general/Folder_Blank.svg;" parent="1" vertex="1">
          <mxGeometry x="80" y="440" width="98.57" height="80" as="geometry" />
        </mxCell>
        <mxCell id="hccr-1u9GcHIdRRUgjbz-14" style="edgeStyle=orthogonalEdgeStyle;rounded=0;orthogonalLoop=1;jettySize=auto;html=1;" edge="1" parent="1" source="-a9hoMa4mL-qHLMkFwVA-12" target="hccr-1u9GcHIdRRUgjbz-7">
          <mxGeometry relative="1" as="geometry" />
        </mxCell>
        <mxCell id="-a9hoMa4mL-qHLMkFwVA-12" value="&lt;span style=&quot;font-size: 16px;&quot;&gt;erp_px_cat_g1v2&lt;/span&gt;" style="text;html=1;align=center;verticalAlign=middle;whiteSpace=wrap;rounded=0;fillColor=#ffe6cc;strokeColor=#d79b00;" parent="1" vertex="1">
          <mxGeometry x="330" y="450" width="180" height="40" as="geometry" />
        </mxCell>
        <mxCell id="hccr-1u9GcHIdRRUgjbz-13" style="edgeStyle=orthogonalEdgeStyle;rounded=0;orthogonalLoop=1;jettySize=auto;html=1;exitX=1;exitY=0.5;exitDx=0;exitDy=0;" edge="1" parent="1" source="-a9hoMa4mL-qHLMkFwVA-13" target="hccr-1u9GcHIdRRUgjbz-8">
          <mxGeometry relative="1" as="geometry" />
        </mxCell>
        <mxCell id="-a9hoMa4mL-qHLMkFwVA-13" value="&lt;span style=&quot;font-size: 16px;&quot;&gt;erp_cust_az12&lt;/span&gt;" style="text;html=1;align=center;verticalAlign=middle;whiteSpace=wrap;rounded=0;fillColor=#ffe6cc;strokeColor=#d79b00;" parent="1" vertex="1">
          <mxGeometry x="330" y="400" width="180" height="40" as="geometry" />
        </mxCell>
        <mxCell id="hccr-1u9GcHIdRRUgjbz-15" style="edgeStyle=orthogonalEdgeStyle;rounded=0;orthogonalLoop=1;jettySize=auto;html=1;" edge="1" parent="1" source="-a9hoMa4mL-qHLMkFwVA-14" target="hccr-1u9GcHIdRRUgjbz-9">
          <mxGeometry relative="1" as="geometry" />
        </mxCell>
        <mxCell id="-a9hoMa4mL-qHLMkFwVA-14" value="&lt;span style=&quot;font-size: 16px;&quot;&gt;erp_loc_a101&lt;/span&gt;" style="text;html=1;align=center;verticalAlign=middle;whiteSpace=wrap;rounded=0;fillColor=#ffe6cc;strokeColor=#d79b00;" parent="1" vertex="1">
          <mxGeometry x="330" y="500" width="180" height="40" as="geometry" />
        </mxCell>
        <mxCell id="-a9hoMa4mL-qHLMkFwVA-23" value="" style="image;aspect=fixed;html=1;points=[];align=center;fontSize=12;image=img/lib/azure2/general/Files.svg;" parent="1" vertex="1">
          <mxGeometry x="114.57" y="240" width="64" height="70" as="geometry" />
        </mxCell>
        <mxCell id="-a9hoMa4mL-qHLMkFwVA-24" value="" style="image;aspect=fixed;html=1;points=[];align=center;fontSize=12;image=img/lib/azure2/general/Files.svg;" parent="1" vertex="1">
          <mxGeometry x="114.57" y="470" width="64" height="70" as="geometry" />
        </mxCell>
        <mxCell id="-a9hoMa4mL-qHLMkFwVA-25" value="&lt;b&gt;&lt;font style=&quot;font-size: 20px;&quot;&gt;CRM&lt;/font&gt;&lt;/b&gt;" style="text;html=1;align=center;verticalAlign=middle;whiteSpace=wrap;rounded=0;" parent="1" vertex="1">
          <mxGeometry x="89.99999999999997" y="320" width="60" height="30" as="geometry" />
        </mxCell>
        <mxCell id="-a9hoMa4mL-qHLMkFwVA-27" value="&lt;span style=&quot;font-size: 20px;&quot;&gt;&lt;b&gt;ERP&lt;/b&gt;&lt;/span&gt;" style="text;html=1;align=center;verticalAlign=middle;whiteSpace=wrap;rounded=0;" parent="1" vertex="1">
          <mxGeometry x="90" y="555" width="60" height="30" as="geometry" />
        </mxCell>
        <mxCell id="-a9hoMa4mL-qHLMkFwVA-30" value="" style="rounded=0;whiteSpace=wrap;html=1;fillColor=none;strokeColor=light-dark(#000000,#543300);dashed=1;fillStyle=hatch;" parent="1" vertex="1">
          <mxGeometry x="320" y="170" width="200" height="430" as="geometry" />
        </mxCell>
        <mxCell id="hccr-1u9GcHIdRRUgjbz-2" value="" style="rounded=0;whiteSpace=wrap;html=1;fillColor=none;strokeColor=light-dark(#000000,#543300);dashed=1;fillStyle=hatch;" vertex="1" parent="1">
          <mxGeometry x="580" y="170" width="200" height="430" as="geometry" />
        </mxCell>
        <mxCell id="hccr-1u9GcHIdRRUgjbz-3" value="&lt;span style=&quot;font-size: 24px;&quot;&gt;Silver Layer&lt;/span&gt;" style="text;html=1;align=center;verticalAlign=middle;whiteSpace=wrap;rounded=0;fillColor=#dae8fc;strokeColor=#6c8ebf;dashed=1;" vertex="1" parent="1">
          <mxGeometry x="580" y="120" width="200" height="50" as="geometry" />
        </mxCell>
        <mxCell id="hccr-1u9GcHIdRRUgjbz-4" value="&lt;span style=&quot;font-size: 16px;&quot;&gt;crm_cust_info&lt;/span&gt;" style="text;html=1;align=center;verticalAlign=middle;whiteSpace=wrap;rounded=0;fillColor=#dae8fc;strokeColor=#6c8ebf;" vertex="1" parent="1">
          <mxGeometry x="590" y="190" width="180" height="40" as="geometry" />
        </mxCell>
        <mxCell id="hccr-1u9GcHIdRRUgjbz-5" value="&lt;span style=&quot;font-size: 16px;&quot;&gt;crm_prd_info&lt;/span&gt;" style="text;html=1;align=center;verticalAlign=middle;whiteSpace=wrap;rounded=0;fillColor=#dae8fc;strokeColor=#6c8ebf;" vertex="1" parent="1">
          <mxGeometry x="590" y="240" width="180" height="40" as="geometry" />
        </mxCell>
        <mxCell id="hccr-1u9GcHIdRRUgjbz-6" value="&lt;span style=&quot;font-size: 16px;&quot;&gt;crm_sales_details&lt;/span&gt;" style="text;html=1;align=center;verticalAlign=middle;whiteSpace=wrap;rounded=0;fillColor=#dae8fc;strokeColor=#6c8ebf;" vertex="1" parent="1">
          <mxGeometry x="590" y="290" width="180" height="40" as="geometry" />
        </mxCell>
        <mxCell id="hccr-1u9GcHIdRRUgjbz-7" value="&lt;span style=&quot;font-size: 16px;&quot;&gt;erp_px_cat_g1v2&lt;/span&gt;" style="text;html=1;align=center;verticalAlign=middle;whiteSpace=wrap;rounded=0;fillColor=#dae8fc;strokeColor=#6c8ebf;" vertex="1" parent="1">
          <mxGeometry x="590" y="450" width="180" height="40" as="geometry" />
        </mxCell>
        <mxCell id="hccr-1u9GcHIdRRUgjbz-8" value="&lt;span style=&quot;font-size: 16px;&quot;&gt;erp_cust_az12&lt;/span&gt;" style="text;html=1;align=center;verticalAlign=middle;whiteSpace=wrap;rounded=0;fillColor=#dae8fc;strokeColor=#6c8ebf;" vertex="1" parent="1">
          <mxGeometry x="590" y="400" width="180" height="40" as="geometry" />
        </mxCell>
        <mxCell id="hccr-1u9GcHIdRRUgjbz-9" value="&lt;span style=&quot;font-size: 16px;&quot;&gt;erp_loc_a101&lt;/span&gt;" style="text;html=1;align=center;verticalAlign=middle;whiteSpace=wrap;rounded=0;fillColor=#dae8fc;strokeColor=#6c8ebf;" vertex="1" parent="1">
          <mxGeometry x="590" y="500" width="180" height="40" as="geometry" />
        </mxCell>
        <mxCell id="hccr-1u9GcHIdRRUgjbz-17" value="" style="rounded=0;whiteSpace=wrap;html=1;fillColor=none;strokeColor=light-dark(#000000,#543300);dashed=1;fillStyle=hatch;" vertex="1" parent="1">
          <mxGeometry x="1020" y="170" width="200" height="430" as="geometry" />
        </mxCell>
        <mxCell id="hccr-1u9GcHIdRRUgjbz-18" value="&lt;span style=&quot;font-size: 24px;&quot;&gt;Gold Layer&lt;/span&gt;" style="text;html=1;align=center;verticalAlign=middle;whiteSpace=wrap;rounded=0;fillColor=#f8cecc;strokeColor=#b85450;dashed=1;" vertex="1" parent="1">
          <mxGeometry x="1020" y="120" width="200" height="50" as="geometry" />
        </mxCell>
        <mxCell id="hccr-1u9GcHIdRRUgjbz-19" value="&lt;span style=&quot;font-size: 16px;&quot;&gt;fact_sales&lt;/span&gt;" style="text;html=1;align=center;verticalAlign=middle;whiteSpace=wrap;rounded=0;fillColor=#ffe6cc;strokeColor=#d79b00;" vertex="1" parent="1">
          <mxGeometry x="1030" y="240" width="180" height="40" as="geometry" />
        </mxCell>
        <mxCell id="hccr-1u9GcHIdRRUgjbz-20" value="&lt;span style=&quot;font-size: 16px;&quot;&gt;dim_customers&lt;/span&gt;" style="text;html=1;align=center;verticalAlign=middle;whiteSpace=wrap;rounded=0;fillColor=#ffe6cc;strokeColor=#d79b00;" vertex="1" parent="1">
          <mxGeometry x="1030" y="350" width="180" height="40" as="geometry" />
        </mxCell>
        <mxCell id="hccr-1u9GcHIdRRUgjbz-21" value="&lt;span style=&quot;font-size: 16px;&quot;&gt;dim_products&lt;/span&gt;" style="text;html=1;align=center;verticalAlign=middle;whiteSpace=wrap;rounded=0;fillColor=#ffe6cc;strokeColor=#d79b00;" vertex="1" parent="1">
          <mxGeometry x="1040" y="470" width="180" height="40" as="geometry" />
        </mxCell>
        <mxCell id="hccr-1u9GcHIdRRUgjbz-35" value="" style="endArrow=classic;html=1;rounded=0;entryX=0;entryY=0.5;entryDx=0;entryDy=0;jumpStyle=gap;" edge="1" parent="1" target="hccr-1u9GcHIdRRUgjbz-19">
          <mxGeometry width="50" height="50" relative="1" as="geometry">
            <mxPoint x="770" y="320" as="sourcePoint" />
            <mxPoint x="820" y="270" as="targetPoint" />
          </mxGeometry>
        </mxCell>
        <mxCell id="hccr-1u9GcHIdRRUgjbz-36" value="" style="endArrow=classic;html=1;rounded=0;entryX=0;entryY=0.75;entryDx=0;entryDy=0;exitX=1;exitY=0.5;exitDx=0;exitDy=0;jumpStyle=gap;" edge="1" parent="1" source="hccr-1u9GcHIdRRUgjbz-9" target="hccr-1u9GcHIdRRUgjbz-20">
          <mxGeometry width="50" height="50" relative="1" as="geometry">
            <mxPoint x="860" y="560" as="sourcePoint" />
            <mxPoint x="1120" y="500" as="targetPoint" />
          </mxGeometry>
        </mxCell>
        <mxCell id="hccr-1u9GcHIdRRUgjbz-37" value="" style="endArrow=classic;html=1;rounded=0;entryX=0;entryY=0.5;entryDx=0;entryDy=0;jumpStyle=gap;" edge="1" parent="1">
          <mxGeometry width="50" height="50" relative="1" as="geometry">
            <mxPoint x="770" y="430" as="sourcePoint" />
            <mxPoint x="1030" y="370" as="targetPoint" />
          </mxGeometry>
        </mxCell>
        <mxCell id="hccr-1u9GcHIdRRUgjbz-38" value="" style="endArrow=classic;html=1;rounded=0;entryX=0;entryY=0.5;entryDx=0;entryDy=0;jumpStyle=gap;" edge="1" parent="1" target="hccr-1u9GcHIdRRUgjbz-21">
          <mxGeometry width="50" height="50" relative="1" as="geometry">
            <mxPoint x="770" y="480" as="sourcePoint" />
            <mxPoint x="1030" y="420" as="targetPoint" />
          </mxGeometry>
        </mxCell>
        <mxCell id="hccr-1u9GcHIdRRUgjbz-39" value="" style="endArrow=classic;html=1;rounded=0;entryX=0;entryY=0.5;entryDx=0;entryDy=0;jumpStyle=gap;" edge="1" parent="1" target="hccr-1u9GcHIdRRUgjbz-21">
          <mxGeometry width="50" height="50" relative="1" as="geometry">
            <mxPoint x="770" y="270" as="sourcePoint" />
            <mxPoint x="1040" y="280" as="targetPoint" />
          </mxGeometry>
        </mxCell>
        <mxCell id="hccr-1u9GcHIdRRUgjbz-40" value="" style="endArrow=classic;html=1;rounded=0;entryX=0;entryY=0.25;entryDx=0;entryDy=0;jumpStyle=gap;" edge="1" parent="1" target="hccr-1u9GcHIdRRUgjbz-20">
          <mxGeometry width="50" height="50" relative="1" as="geometry">
            <mxPoint x="770" y="210" as="sourcePoint" />
            <mxPoint x="1040" y="430" as="targetPoint" />
          </mxGeometry>
        </mxCell>
      </root>
    </mxGraphModel>
  </diagram>
</mxfile>
